# xmcd
#
# Track frame offsets: 
#        150
#        12750
#        26513
#        40613
#        59663
#
# Disc length: 982 seconds
#
# Revision: 0
# Processed by: cddbd v1.5.2PL0 Copyright (c) Steve Scherf et al.
# Submitted via: ExactAudioCopyFreeDBPlugin 1.0
#
DISCID=3403d405
DTITLE=Smitten - Lonestar
DYEAR=1900
DGENRE=Blues
TTITLE0=Lonestar
TTITLE1=Boom
TTITLE2=Closing the books
TTITLE3=Birds
TTITLE4=2am
EXTD=
EXTT0=
EXTT1=
EXTT2=
EXTT3=
EXTT4=
PLAYORDER=
